<svg width="103" height="31" viewBox="0 0 103 31" fill="none" xmlns="http://www.w3.org/2000/svg">
<path d="M14.784 21.9086C14.1582 23.024 13.2978 23.8838 12.2027 24.488C11.1075 25.0767 9.89154 25.371 8.55467 25.371C6.91914 25.371 5.51823 25.0457 4.35201 24.395C3.20001 23.7444 2.31112 22.8149 1.68534 21.6065C1.07379 20.3826 0.768005 18.9186 0.768005 17.2145C0.768005 15.4639 1.10934 13.9302 1.79201 12.6134C2.47467 11.2966 3.42045 10.2663 4.62934 9.52271C5.85245 8.7791 7.26047 8.40729 8.85334 8.40729C10.2471 8.40729 11.4205 8.68614 12.3733 9.24386C13.3405 9.80157 14.1511 10.6459 14.8053 11.7768L12.1387 13.845C11.7973 13.1324 11.328 12.6134 10.7307 12.288C10.1333 11.9627 9.49334 11.8 8.81067 11.8C7.91467 11.8 7.13247 12.0246 6.46401 12.4739C5.79556 12.9232 5.26934 13.5507 4.88534 14.3562C4.51556 15.1618 4.33067 16.0913 4.33067 17.1448C4.33067 18.6785 4.70045 19.8714 5.44001 20.7234C6.17956 21.5755 7.22487 22.0015 8.57601 22.0015C9.30134 22.0015 9.98401 21.8156 10.624 21.4438C11.2782 21.0565 11.8045 20.4756 12.2027 19.701L14.784 21.9086ZM21.0915 13.1246C22.7839 13.1246 24.1066 13.6513 25.0595 14.7048C26.0266 15.7583 26.5102 17.1835 26.5102 18.9806C26.5102 20.2044 26.2684 21.2966 25.7848 22.2571C25.3013 23.2177 24.6186 23.9768 23.7369 24.5345C22.8551 25.0922 21.8169 25.371 20.6222 25.371C18.9439 25.371 17.6213 24.8443 16.6542 23.7909C15.7013 22.7374 15.2248 21.3199 15.2248 19.5383C15.2248 18.2989 15.4666 17.199 15.9502 16.2385C16.4337 15.278 17.1164 14.5189 17.9982 13.9612C18.8799 13.4035 19.9111 13.1246 21.0915 13.1246ZM20.7715 22.2804C21.4969 22.2804 22.0729 21.9861 22.4995 21.3973C22.9404 20.7932 23.1609 19.9876 23.1609 18.9806C23.1609 18.113 22.9689 17.4391 22.5849 16.9589C22.2009 16.4631 21.6746 16.2153 21.0062 16.2153C20.2666 16.2153 19.6764 16.5174 19.2355 17.1215C18.8089 17.7103 18.5955 18.5081 18.5955 19.5151C18.5955 20.3826 18.7804 21.0642 19.1502 21.56C19.5342 22.0402 20.0746 22.2804 20.7715 22.2804ZM28.4879 25.1387V13.3105H31.7305L31.5812 15.8435C32.0221 14.9759 32.5839 14.3097 33.2665 13.845C33.9634 13.3648 34.7385 13.1246 35.5919 13.1246C36.8861 13.1246 37.8532 13.6048 38.4931 14.5654C39.1332 15.5104 39.4461 16.8737 39.4319 18.6553L39.3892 25.1387H36.1252L36.1679 18.9109C36.1821 18.1053 36.0683 17.4934 35.8265 17.0751C35.5989 16.6413 35.2292 16.4244 34.7172 16.4244C34.2905 16.4244 33.8994 16.5638 33.5439 16.8427C33.1883 17.1061 32.8754 17.5631 32.6052 18.2137C32.3492 18.8644 32.1429 19.7552 31.9865 20.8861C31.8301 22.017 31.7447 23.4345 31.7305 25.1387H28.4879ZM47.1342 25.371C45.9253 25.371 44.8799 25.1309 43.9982 24.6507C43.1164 24.1549 42.4337 23.4655 41.9502 22.5825C41.4666 21.684 41.2248 20.6227 41.2248 19.3989C41.2248 18.1595 41.4666 17.0673 41.9502 16.1223C42.4479 15.1773 43.1093 14.4414 43.9342 13.9147C44.7733 13.388 45.7191 13.1246 46.7715 13.1246C47.9662 13.1246 48.9404 13.4189 49.6942 14.0076C50.4479 14.5964 50.9671 15.4329 51.2515 16.5174C51.5502 17.5863 51.6142 18.8334 51.4435 20.2587H44.5529C44.6382 20.8474 44.9226 21.3431 45.4062 21.7459C45.8897 22.1332 46.5511 22.3269 47.3902 22.3269C47.7742 22.3269 48.1795 22.2417 48.6062 22.0712C49.0329 21.8853 49.3955 21.6143 49.6942 21.2579L51.5075 23.3493C51.0382 23.969 50.4551 24.4648 49.7582 24.8366C49.0755 25.1929 48.2009 25.371 47.1342 25.371ZM46.8355 15.704C46.2666 15.704 45.7831 15.8899 45.3849 16.2617C45.0009 16.6335 44.7449 17.1526 44.6169 17.8187H48.6915C48.7057 17.0905 48.5422 16.5561 48.2009 16.2153C47.8737 15.8745 47.4186 15.704 46.8355 15.704ZM58.4169 25.371C57.2933 25.371 56.3191 25.1387 55.4942 24.6739C54.6693 24.1937 54.0293 23.512 53.5742 22.629C53.1191 21.7459 52.8915 20.6924 52.8915 19.4686C52.8915 18.2137 53.1333 17.1138 53.6169 16.1688C54.1146 15.2083 54.7973 14.4646 55.6649 13.9379C56.5324 13.3957 57.5422 13.1246 58.6942 13.1246C59.6329 13.1246 60.4649 13.326 61.1902 13.7288C61.9155 14.1316 62.4986 14.759 62.9395 15.6111L60.6355 17.5166C60.4079 17.0673 60.1377 16.742 59.8249 16.5406C59.5262 16.3392 59.1493 16.2385 58.6942 16.2385C57.9973 16.2385 57.4213 16.5328 56.9662 17.1215C56.5111 17.6947 56.2835 18.4539 56.2835 19.3989C56.2835 20.3129 56.4826 21.0178 56.8809 21.5135C57.2933 22.0093 57.8835 22.2571 58.6515 22.2571C59.0639 22.2571 59.4409 22.1564 59.7822 21.955C60.1377 21.7381 60.4364 21.4051 60.6782 20.9558L62.9182 22.9078C62.4346 23.8063 61.7946 24.4415 60.9982 24.8133C60.2159 25.1851 59.3555 25.371 58.4169 25.371ZM69.04 25.371C67.7027 25.371 66.6434 24.9682 65.8612 24.1627C65.0789 23.3416 64.6949 22.2649 64.7092 20.9326L64.7945 16.2617H63.0025V13.3105H64.8372L64.8585 10.8938H68.1013L68.08 13.3105H71.472V16.2617H68.0373L67.9733 20.5375C67.9733 21.0952 68.108 21.529 68.3787 21.8389C68.6487 22.1487 69.054 22.3036 69.5947 22.3036C69.9073 22.3036 70.206 22.2649 70.4907 22.1874C70.7893 22.0945 71.0947 21.924 71.408 21.6762L72.3467 24.395C71.6213 25.0457 70.5187 25.371 69.04 25.371ZM83.738 13.357V25.1387H80.4527L80.5593 23.3726C79.7767 24.7049 78.618 25.371 77.082 25.371C76.1147 25.371 75.29 25.1309 74.6073 24.6507C73.9247 24.1704 73.4053 23.5042 73.05 22.6522C72.694 21.8002 72.5167 20.8242 72.5167 19.7242C72.5167 18.4074 72.7653 17.2532 73.2633 16.2617C73.7607 15.2703 74.4293 14.5034 75.2687 13.9612C76.1073 13.4035 77.046 13.1246 78.0847 13.1246C78.7673 13.1246 79.3713 13.2795 79.898 13.5894C80.424 13.8837 80.8293 14.2787 81.114 14.7745L81.3913 13.357H83.738ZM78.4047 16.2153C77.622 16.2153 77.0033 16.5328 76.5487 17.168C76.1073 17.8032 75.8873 18.6165 75.8873 19.608C75.8873 20.46 76.058 21.1185 76.3993 21.5832C76.7547 22.048 77.2313 22.2804 77.8287 22.2804C78.554 22.2804 79.1727 21.955 79.6847 21.3044C80.2107 20.6537 80.474 19.8017 80.474 18.7482C80.474 17.9581 80.2887 17.3385 79.9193 16.8892C79.5493 16.4399 79.0447 16.2153 78.4047 16.2153Z" fill="#FE7F14"/>
<path d="M94.1547 13.3105H97.2907V17.6095H101.152V20.8396H97.2907V25.1387H94.1547V20.8396H90.3147V17.6095H94.1547V13.3105Z" fill="#001F3E"/>
</svg>
