<svg width="116" height="155" viewBox="0 0 116 155" fill="none" xmlns="http://www.w3.org/2000/svg">
<path d="M3.072 78.016C3.072 71.36 4.448 65.44 7.2 60.256C10.016 55.008 13.984 50.944 19.104 48.064C24.224 45.12 30.112 43.648 36.768 43.648C45.216 43.648 52.32 45.92 58.08 50.464C63.84 54.944 67.552 61.056 69.216 68.8H48.96C47.744 66.24 46.048 64.288 43.872 62.944C41.76 61.6 39.296 60.928 36.48 60.928C32.128 60.928 28.64 62.496 26.016 65.632C23.456 68.704 22.176 72.832 22.176 78.016C22.176 83.264 23.456 87.456 26.016 90.592C28.64 93.664 32.128 95.2 36.48 95.2C39.296 95.2 41.76 94.528 43.872 93.184C46.048 91.84 47.744 89.888 48.96 87.328H69.216C67.552 95.072 63.84 101.216 58.08 105.76C52.32 110.24 45.216 112.48 36.768 112.48C30.112 112.48 24.224 111.04 19.104 108.16C13.984 105.216 10.016 101.152 7.2 95.968C4.448 90.72 3.072 84.736 3.072 78.016Z" fill="white"/>
<path d="M102.5 85.96H88.01V100.9H71.09V85.96H56.51V70.03H71.09V55H88.01V70.03H102.5V85.96Z" fill="#FE7F14"/>
</svg>
