<svg width="24" height="26" viewBox="0 0 24 26" fill="none" xmlns="http://www.w3.org/2000/svg">
<path d="M12.5418 4.14748C13.5255 3.38959 14.6665 3.01064 15.9551 3.01064C16.6634 3.01064 17.4405 3.21064 18.2865 3.63169C19.1324 4.04222 19.8013 4.52643 20.2931 5.08432C21.3063 6.43169 21.7293 8.00011 21.5818 9.78959C21.4244 11.5791 20.8735 12.9791 19.9193 13.9685L12.4533 21.958C12.2664 22.158 12.0303 22.2527 11.7549 22.2527C11.4794 22.2527 11.2532 22.158 11.0663 21.958C10.8794 21.758 10.7909 21.5159 10.7909 21.2212C10.7909 20.9264 10.8794 20.6738 11.0663 20.4738L15.5813 15.6422C15.8273 15.4106 15.8273 15.1685 15.5813 14.9054C15.3354 14.6422 15.1092 14.6422 14.8928 14.9054L10.3777 19.737C10.1908 19.937 9.96457 20.0317 9.67931 20.0317C9.40388 20.0317 9.17763 19.937 8.99074 19.737C8.80384 19.537 8.71531 19.2948 8.71531 19.0001C8.71531 18.7054 8.80384 18.4527 8.99074 18.2527L13.5058 13.4212C13.7714 13.158 13.7714 12.8949 13.5058 12.6317C13.2796 12.3685 13.0631 12.3685 12.8172 12.6317L8.30216 17.5159C8.11527 17.7159 7.86935 17.8106 7.60376 17.8106C7.32833 17.8106 7.09225 17.7159 6.88567 17.5159C6.68894 17.3159 6.59057 17.0738 6.59057 16.7791C6.59057 16.4843 6.69878 16.2212 6.91519 15.9896L11.4401 11.1475C11.686 10.8843 11.686 10.6422 11.4401 10.4106C11.1942 10.1791 10.9581 10.1791 10.7417 10.4106L6.17743 15.2633C5.96102 15.4738 5.73478 15.5896 5.48886 15.5896C5.21343 15.5896 4.97735 15.4843 4.80029 15.2633C4.61339 15.0527 4.51502 14.8001 4.51502 14.5054C4.51502 14.2106 4.61339 13.9685 4.80029 13.7685C7.81033 10.5264 9.66947 8.56853 10.3777 7.84222L13.8796 11.5475C14.2632 11.937 14.7059 12.137 15.2469 12.137C15.9355 12.137 16.4765 11.8422 16.8798 11.2527C17.1552 10.8212 17.2536 10.3475 17.1749 9.82117C17.0962 9.29485 16.8896 8.85275 16.5552 8.48432L12.5418 4.14748ZM14.5682 10.8106L10.3777 6.3159L3.41331 13.7685C2.58702 12.8738 2.11486 11.5054 2.00665 9.64222C1.89845 7.78959 2.37061 6.17906 3.41331 4.83169C4.58388 3.58959 5.9807 2.95801 7.60376 2.95801C9.23665 2.95801 10.6236 3.58959 11.7549 4.83169L15.9551 9.32643C16.142 9.52643 16.2306 9.76853 16.2306 10.0633C16.2306 10.358 16.142 10.6106 15.9551 10.8106C15.7682 11.0001 15.542 11.1054 15.2469 11.1054C14.9813 11.1054 14.7551 11.0001 14.5682 10.8106Z" fill="white"/>
</svg>
