<svg width="40" height="40" viewBox="0 0 40 40" fill="none" xmlns="http://www.w3.org/2000/svg">
<path d="M21.6667 28.3333C22.1087 28.3333 22.5326 28.1577 22.8452 27.8452C23.1577 27.5326 23.3333 27.1087 23.3333 26.6667C23.3333 26.2246 23.1577 25.8007 22.8452 25.4882C22.5326 25.1756 22.1087 25 21.6667 25C21.2246 25 20.8007 25.1756 20.4882 25.4882C20.1756 25.8007 20 26.2246 20 26.6667C20 27.1087 20.1756 27.5326 20.4882 27.8452C20.8007 28.1577 21.2246 28.3333 21.6667 28.3333ZM21.6667 21.6667C22.1087 21.6667 22.5326 21.4911 22.8452 21.1785C23.1577 20.8659 23.3333 20.442 23.3333 20C23.3333 19.558 23.1577 19.134 22.8452 18.8215C22.5326 18.5089 22.1087 18.3333 21.6667 18.3333C21.2246 18.3333 20.8007 18.5089 20.4882 18.8215C20.1756 19.134 20 19.558 20 20C20 20.442 20.1756 20.8659 20.4882 21.1785C20.8007 21.4911 21.2246 21.6667 21.6667 21.6667ZM21.6667 15C22.1087 15 22.5326 14.8244 22.8452 14.5118C23.1577 14.1993 23.3333 13.7754 23.3333 13.3333C23.3333 12.8913 23.1577 12.4674 22.8452 12.1548C22.5326 11.8423 22.1087 11.6667 21.6667 11.6667C21.2246 11.6667 20.8007 11.8423 20.4882 12.1548C20.1756 12.4674 20 12.8913 20 13.3333C20 13.7754 20.1756 14.1993 20.4882 14.5118C20.8007 14.8244 21.2246 15 21.6667 15ZM28.3333 20.8333C28.5543 20.8333 28.7663 20.7455 28.9226 20.5893C29.0789 20.433 29.1667 20.221 29.1667 20C29.1667 19.779 29.0789 19.567 28.9226 19.4107C28.7663 19.2545 28.5543 19.1667 28.3333 19.1667C28.1123 19.1667 27.9004 19.2545 27.7441 19.4107C27.5878 19.567 27.5 19.779 27.5 20C27.5 20.221 27.5878 20.433 27.7441 20.5893C27.9004 20.7455 28.1123 20.8333 28.3333 20.8333ZM28.3333 14.1667C28.5543 14.1667 28.7663 14.0789 28.9226 13.9226C29.0789 13.7663 29.1667 13.5543 29.1667 13.3333C29.1667 13.1123 29.0789 12.9004 28.9226 12.7441C28.7663 12.5878 28.5543 12.5 28.3333 12.5C28.1123 12.5 27.9004 12.5878 27.7441 12.7441C27.5878 12.9004 27.5 13.1123 27.5 13.3333C27.5 13.5543 27.5878 13.7663 27.7441 13.9226C27.9004 14.0789 28.1123 14.1667 28.3333 14.1667ZM5 5V8.33333H35V5M28.3333 27.5C28.5543 27.5 28.7663 27.4122 28.9226 27.2559C29.0789 27.0996 29.1667 26.8877 29.1667 26.6667C29.1667 26.4457 29.0789 26.2337 28.9226 26.0774C28.7663 25.9211 28.5543 25.8333 28.3333 25.8333C28.1123 25.8333 27.9004 25.9211 27.7441 26.0774C27.5878 26.2337 27.5 26.4457 27.5 26.6667C27.5 26.8877 27.5878 27.0996 27.7441 27.2559C27.9004 27.4122 28.1123 27.5 28.3333 27.5ZM15 28.3333C15.442 28.3333 15.8659 28.1577 16.1785 27.8452C16.4911 27.5326 16.6667 27.1087 16.6667 26.6667C16.6667 26.2246 16.4911 25.8007 16.1785 25.4882C15.8659 25.1756 15.442 25 15 25C14.558 25 14.134 25.1756 13.8215 25.4882C13.5089 25.8007 13.3333 26.2246 13.3333 26.6667C13.3333 27.1087 13.5089 27.5326 13.8215 27.8452C14.134 28.1577 14.558 28.3333 15 28.3333ZM8.33333 22.5C8.99637 22.5 9.63226 22.2366 10.1011 21.7678C10.5699 21.2989 10.8333 20.663 10.8333 20C10.8333 19.337 10.5699 18.7011 10.1011 18.2322C9.63226 17.7634 8.99637 17.5 8.33333 17.5C7.67029 17.5 7.03441 17.7634 6.56557 18.2322C6.09673 18.7011 5.83333 19.337 5.83333 20C5.83333 20.663 6.09673 21.2989 6.56557 21.7678C7.03441 22.2366 7.67029 22.5 8.33333 22.5ZM8.33333 15.8333C8.99637 15.8333 9.63226 15.5699 10.1011 15.1011C10.5699 14.6323 10.8333 13.9964 10.8333 13.3333C10.8333 12.6703 10.5699 12.0344 10.1011 11.5656C9.63226 11.0967 8.99637 10.8333 8.33333 10.8333C7.67029 10.8333 7.03441 11.0967 6.56557 11.5656C6.09673 12.0344 5.83333 12.6703 5.83333 13.3333C5.83333 13.9964 6.09673 14.6323 6.56557 15.1011C7.03441 15.5699 7.67029 15.8333 8.33333 15.8333ZM5 35H35V31.6667H5M15 15C15.442 15 15.8659 14.8244 16.1785 14.5118C16.4911 14.1993 16.6667 13.7754 16.6667 13.3333C16.6667 12.8913 16.4911 12.4674 16.1785 12.1548C15.8659 11.8423 15.442 11.6667 15 11.6667C14.558 11.6667 14.134 11.8423 13.8215 12.1548C13.5089 12.4674 13.3333 12.8913 13.3333 13.3333C13.3333 13.7754 13.5089 14.1993 13.8215 14.5118C14.134 14.8244 14.558 15 15 15ZM15 21.6667C15.442 21.6667 15.8659 21.4911 16.1785 21.1785C16.4911 20.8659 16.6667 20.442 16.6667 20C16.6667 19.558 16.4911 19.134 16.1785 18.8215C15.8659 18.5089 15.442 18.3333 15 18.3333C14.558 18.3333 14.134 18.5089 13.8215 18.8215C13.5089 19.134 13.3333 19.558 13.3333 20C13.3333 20.442 13.5089 20.8659 13.8215 21.1785C14.134 21.4911 14.558 21.6667 15 21.6667ZM8.33333 29.1667C8.99637 29.1667 9.63226 28.9033 10.1011 28.4344C10.5699 27.9656 10.8333 27.3297 10.8333 26.6667C10.8333 26.0036 10.5699 25.3677 10.1011 24.8989C9.63226 24.4301 8.99637 24.1667 8.33333 24.1667C7.67029 24.1667 7.03441 24.4301 6.56557 24.8989C6.09673 25.3677 5.83333 26.0036 5.83333 26.6667C5.83333 27.3297 6.09673 27.9656 6.56557 28.4344C7.03441 28.9033 7.67029 29.1667 8.33333 29.1667Z" fill="white"/>
</svg>
