<svg width="25" height="25" viewBox="0 0 25 25" fill="none" xmlns="http://www.w3.org/2000/svg">
<path d="M5.13543 5.13538C3.25001 7.02079 2.08334 9.62496 2.08334 12.5C2.08334 15.375 3.25001 17.9791 5.13543 19.8645L6.60418 18.3958C5.09376 16.8958 4.16668 14.8125 4.16668 12.5C4.16668 10.1979 5.09376 8.10413 6.60418 6.60413L5.13543 5.13538ZM19.8646 5.13538L18.3958 6.60413C19.9063 8.10413 20.8333 10.1979 20.8333 12.5C20.8333 14.8125 19.9063 16.8958 18.3958 18.3958L19.8646 19.8645C21.75 17.9791 22.9167 15.375 22.9167 12.5C22.9167 9.62496 21.75 7.02079 19.8646 5.13538ZM8.08334 8.08329C6.94793 9.21871 6.25001 10.7812 6.25001 12.5C6.25001 14.2187 6.94793 15.7812 8.08334 16.9166L9.55209 15.4479C8.80209 14.6979 8.33334 13.6562 8.33334 12.5C8.33334 11.3437 8.80209 10.302 9.55209 9.55204L8.08334 8.08329ZM16.9167 8.08329L15.4479 9.55204C16.1979 10.302 16.6667 11.3437 16.6667 12.5C16.6667 13.6562 16.1979 14.6979 15.4479 15.4479L16.9167 16.9166C18.0521 15.7812 18.75 14.2187 18.75 12.5C18.75 10.7812 18.0521 9.21871 16.9167 8.08329ZM12.5 10.4166C11.9475 10.4166 11.4176 10.6361 11.0269 11.0268C10.6362 11.4175 10.4167 11.9474 10.4167 12.5C10.4167 13.0525 10.6362 13.5824 11.0269 13.9731C11.4176 14.3638 11.9475 14.5833 12.5 14.5833C13.0525 14.5833 13.5824 14.3638 13.9732 13.9731C14.3639 13.5824 14.5833 13.0525 14.5833 12.5C14.5833 11.9474 14.3639 11.4175 13.9732 11.0268C13.5824 10.6361 13.0525 10.4166 12.5 10.4166Z" fill="white"/>
</svg>
