<svg width="43" height="40" viewBox="0 0 43 40" fill="001F3E" xmlns="http://www.w3.org/2000/svg">
<path d="M21.1429 4.05896C18.8291 4.05896 16.538 4.49006 14.4003 5.32763C12.2627 6.16521 10.3204 7.39287 8.68431 8.94051C5.3801 12.0661 3.52381 16.3054 3.52381 20.7256C3.52381 25.1459 5.3801 29.3851 8.68431 32.5107C10.3204 34.0584 12.2627 35.286 14.4003 36.1236C16.538 36.9612 18.8291 37.3923 21.1429 37.3923C25.8157 37.3923 30.2972 35.6363 33.6014 32.5107C36.9056 29.3851 38.7619 25.1459 38.7619 20.7256C38.7619 18.7923 38.3919 16.8756 37.6871 15.0756L34.8681 17.7423C35.1148 18.7256 35.2381 19.7256 35.2381 20.7256C35.2381 24.2618 33.7531 27.6532 31.1097 30.1537C28.4663 32.6542 24.8812 34.059 21.1429 34.059C17.4046 34.059 13.8194 32.6542 11.176 30.1537C8.53265 27.6532 7.04762 24.2618 7.04762 20.7256C7.04762 17.1894 8.53265 13.798 11.176 11.2975C13.8194 8.79705 17.4046 7.39229 21.1429 7.39229C22.2 7.39229 23.2571 7.50896 24.2967 7.74229L27.1333 5.05896C25.2129 4.40896 23.1867 4.05896 21.1429 4.05896ZM33.4762 4.05896L26.4286 10.7256V13.2256L21.9357 17.4756C21.6714 17.3923 21.4071 17.3923 21.1429 17.3923C20.2083 17.3923 19.312 17.7435 18.6512 18.3686C17.9903 18.9937 17.6191 19.8416 17.6191 20.7256C17.6191 21.6097 17.9903 22.4575 18.6512 23.0826C19.312 23.7078 20.2083 24.059 21.1429 24.059C22.0774 24.059 22.9737 23.7078 23.6346 23.0826C24.2954 22.4575 24.6667 21.6097 24.6667 20.7256C24.6667 20.4756 24.6667 20.2256 24.5786 19.9756L29.0714 15.7256H31.7143L38.7619 9.05896H33.4762V4.05896ZM21.1429 10.7256C18.3391 10.7256 15.6503 11.7792 13.6677 13.6546C11.6852 15.5299 10.5714 18.0735 10.5714 20.7256C10.5714 23.3778 11.6852 25.9213 13.6677 27.7967C15.6503 29.6721 18.3391 30.7256 21.1429 30.7256C23.9466 30.7256 26.6355 29.6721 28.618 27.7967C30.6005 25.9213 31.7143 23.3778 31.7143 20.7256H28.1905C28.1905 22.4937 27.448 24.1894 26.1263 25.4397C24.8046 26.6899 23.012 27.3923 21.1429 27.3923C19.2737 27.3923 17.4811 26.6899 16.1594 25.4397C14.8378 24.1894 14.0952 22.4937 14.0952 20.7256C14.0952 18.9575 14.8378 17.2618 16.1594 16.0116C17.4811 14.7613 19.2737 14.059 21.1429 14.059V10.7256Z" fill="white"/>
</svg>
