<svg width="38" height="39" viewBox="0 0 38 39" fill="none" xmlns="http://www.w3.org/2000/svg">
<path d="M20.6674 3.54179C28.0091 3.54179 33.8448 9.03156 33.8448 15.9381C33.8448 20.8966 30.8328 25.1467 26.3148 27.0947V35.4179H13.1374V30.1052H11.255C9.18422 30.1052 7.48998 28.5114 7.48998 26.5634V21.2507H4.66626C3.91326 21.2507 3.34852 20.3653 3.91326 19.834L7.48998 15.4068C7.86648 8.67738 13.5139 3.54179 20.6674 3.54179ZM20.6674 0C12.0079 0 4.85451 6.02104 3.91326 13.9901L0.901288 17.7089C-0.228204 19.1257 -0.228204 20.8966 0.52479 22.3133C1.27778 23.5529 2.40728 24.4383 3.72501 24.6154V26.5634C3.72501 29.9281 6.17225 32.5845 9.37247 33.4699V38.9597H30.0798V29.2198C34.786 26.2092 37.6097 21.4278 37.6097 15.9381C37.6097 7.08358 30.0798 0 20.6674 0ZM22.5499 23.0216H18.7849V21.2507H22.5499V23.0216ZM25.5618 15.0526C24.9971 15.761 24.4323 16.4693 23.4911 17.0006V19.4798H17.8437V17.0006C15.2082 15.5839 14.2669 12.2192 15.7729 9.73992C17.2789 7.26067 20.8556 6.37522 23.4911 7.79194C26.1266 9.20865 27.0678 12.5734 25.5618 15.0526Z" fill="white"/>
</svg>
