<svg width="37" height="37" viewBox="0 0 37 37" fill="none" xmlns="http://www.w3.org/2000/svg">
<path d="M7.5 0C11.6667 0 15 3.33333 15 7.5C15 8.96667 14.5833 10.3333 13.85 11.5L14.0167 11.6667H22.65L22.8167 11.5C22.0833 10.3333 21.6667 8.96667 21.6667 7.5C21.6667 3.33333 25 0 29.1667 0C33.3333 0 36.6667 3.33333 36.6667 7.5C36.6667 11.6667 33.3333 15 29.1667 15C27.7 15 26.3333 14.5833 25.1667 13.85L23.3333 15.6833V20.9833L25.1667 22.8167C26.3333 22.0833 27.7 21.6667 29.1667 21.6667C33.3333 21.6667 36.6667 25 36.6667 29.1667C36.6667 33.3333 33.3333 36.6667 29.1667 36.6667C25 36.6667 21.6667 33.3333 21.6667 29.1667C21.6667 27.7 22.0833 26.3333 22.8167 25.1667L22.65 25H14.0167L13.85 25.1667C14.5833 26.3333 15 27.7 15 29.1667C15 33.3333 11.6667 36.6667 7.5 36.6667C3.33333 36.6667 0 33.3333 0 29.1667C0 25 3.33333 21.6667 7.5 21.6667C8.96667 21.6667 10.3333 22.0833 11.5 22.8167L13.3333 20.9833V15.6833L11.5 13.85C10.3333 14.5833 8.96667 15 7.5 15C3.33333 15 0 11.6667 0 7.5C0 3.33333 3.33333 0 7.5 0ZM7.5 3.33333C6.39493 3.33333 5.33512 3.77232 4.55372 4.55372C3.77232 5.33512 3.33333 6.39493 3.33333 7.5C3.33333 8.60507 3.77232 9.66488 4.55372 10.4463C5.33512 11.2277 6.39493 11.6667 7.5 11.6667C8.60507 11.6667 9.66488 11.2277 10.4463 10.4463C11.2277 9.66488 11.6667 8.60507 11.6667 7.5C11.6667 6.39493 11.2277 5.33512 10.4463 4.55372C9.66488 3.77232 8.60507 3.33333 7.5 3.33333ZM7.5 25C6.39493 25 5.33512 25.439 4.55372 26.2204C3.77232 27.0018 3.33333 28.0616 3.33333 29.1667C3.33333 30.2717 3.77232 31.3315 4.55372 32.1129C5.33512 32.8943 6.39493 33.3333 7.5 33.3333C8.60507 33.3333 9.66488 32.8943 10.4463 32.1129C11.2277 31.3315 11.6667 30.2717 11.6667 29.1667C11.6667 28.0616 11.2277 27.0018 10.4463 26.2204C9.66488 25.439 8.60507 25 7.5 25ZM29.1667 3.33333C28.0616 3.33333 27.0018 3.77232 26.2204 4.55372C25.439 5.33512 25 6.39493 25 7.5C25 8.60507 25.439 9.66488 26.2204 10.4463C27.0018 11.2277 28.0616 11.6667 29.1667 11.6667C30.2717 11.6667 31.3315 11.2277 32.1129 10.4463C32.8943 9.66488 33.3333 8.60507 33.3333 7.5C33.3333 6.39493 32.8943 5.33512 32.1129 4.55372C31.3315 3.77232 30.2717 3.33333 29.1667 3.33333ZM29.1667 25C28.0616 25 27.0018 25.439 26.2204 26.2204C25.439 27.0018 25 28.0616 25 29.1667C25 30.2717 25.439 31.3315 26.2204 32.1129C27.0018 32.8943 28.0616 33.3333 29.1667 33.3333C30.2717 33.3333 31.3315 32.8943 32.1129 32.1129C32.8943 31.3315 33.3333 30.2717 33.3333 29.1667C33.3333 28.0616 32.8943 27.0018 32.1129 26.2204C31.3315 25.439 30.2717 25 29.1667 25ZM4.85 27.0833L6.73333 28.1833C6.95 28.0167 7.21667 27.9167 7.5 27.9167C7.83152 27.9167 8.14946 28.0484 8.38388 28.2828C8.6183 28.5172 8.75 28.8351 8.75 29.1667L8.73333 29.3333L10.6167 30.4167L10.15 31.25L8.26667 30.15C8.05 30.3167 7.78333 30.4167 7.5 30.4167C7.16848 30.4167 6.85054 30.285 6.61612 30.0506C6.3817 29.8161 6.25 29.4982 6.25 29.1667L6.26667 29L4.38333 27.9167L4.85 27.0833ZM4.38333 8.75L6.26667 7.66667L6.25 7.5C6.25 7.16848 6.3817 6.85054 6.61612 6.61612C6.85054 6.3817 7.16848 6.25 7.5 6.25C7.78333 6.25 8.05 6.35 8.26667 6.51667L10.15 5.41667L10.6167 6.25L8.73333 7.33333L8.75 7.5C8.75 7.83152 8.6183 8.14946 8.38388 8.38388C8.14946 8.6183 7.83152 8.75 7.5 8.75C7.21667 8.75 6.95 8.65 6.73333 8.48333L4.85 9.58333L4.38333 8.75ZM26.5167 5.41667L28.4 6.51667C28.6167 6.35 28.8833 6.25 29.1667 6.25C29.4982 6.25 29.8161 6.3817 30.0506 6.61612C30.285 6.85054 30.4167 7.16848 30.4167 7.5L30.4 7.66667L32.2833 8.75L31.8167 9.58333L29.9333 8.48333C29.7167 8.65 29.45 8.75 29.1667 8.75C28.8351 8.75 28.5172 8.6183 28.2828 8.38388C28.0484 8.14946 27.9167 7.83152 27.9167 7.5L27.9333 7.33333L26.05 6.25L26.5167 5.41667ZM26.05 30.4167L27.9167 29.1667C27.9167 28.8351 28.0484 28.5172 28.2828 28.2828C28.5172 28.0484 28.8351 27.9167 29.1667 27.9167C29.45 27.9167 29.7167 28.0167 29.9333 28.1833L31.8167 27.0833L32.2833 27.9167L30.4167 29.1667C30.4167 29.4982 30.285 29.8161 30.0506 30.0506C29.8161 30.285 29.4982 30.4167 29.1667 30.4167C28.8833 30.4167 28.6167 30.3167 28.4 30.15L26.5167 31.25L26.05 30.4167Z" fill="white"/>
</svg>
