<svg width="40" height="40" viewBox="0 0 40 40" fill="none" xmlns="http://www.w3.org/2000/svg">
<path d="M38.5857 13.702C40.9783 11.3095 39.8873 8.51509 38.5857 7.15617L32.8435 1.41424C30.4317 -0.978226 27.6563 0.11274 26.2973 1.41424L23.0434 4.68714H18.0859C14.4492 4.68714 12.3437 6.60112 11.2718 8.80219L2.77331 17.3002V24.9561L1.41432 26.2959C-0.978278 28.7075 0.112746 31.4828 1.41432 32.8417L7.15655 38.5837C8.19015 39.6172 9.30031 40 10.3531 40C11.712 40 12.9562 39.3301 13.7027 38.5837L18.8707 33.3968H25.7422C28.9962 33.3968 30.6423 31.368 31.2356 29.3774C33.3985 28.8032 34.5853 27.1572 35.0638 25.5495C38.0306 24.7839 39.1408 21.9703 39.1408 19.999V14.257H38.0115L38.5857 13.702ZM35.3126 19.999C35.3126 20.8602 34.9489 21.9129 33.3985 21.9129H31.4845V23.8269C31.4845 24.6882 31.1208 25.7409 29.5704 25.7409H27.6563V27.6549C27.6563 28.5161 27.2926 29.5688 25.7422 29.5688H17.3012L11.023 35.8467C10.4296 36.4017 10.0851 36.0763 9.87454 35.8658L4.15145 30.1622C3.59637 29.5688 3.92176 29.2243 4.13231 29.0138L6.60146 26.5256V18.8697L10.4296 15.0418V18.085C10.4296 20.4009 11.9609 23.8269 16.1718 23.8269C20.3828 23.8269 21.9141 20.4009 21.9141 18.085H35.3126V19.999ZM35.8677 10.9841L32.6138 14.257H18.0859V18.085C18.0859 18.9463 17.7222 19.999 16.1718 19.999C14.6214 19.999 14.2578 18.9463 14.2578 18.085V12.343C14.2578 11.4626 14.5832 8.51509 18.0859 8.51509H24.6129L28.977 4.15123C29.5704 3.59618 29.9149 3.92155 30.1255 4.13209L35.8486 9.83574C36.4036 10.4291 36.0782 10.7736 35.8677 10.9841Z" fill="white"/>
</svg>
